<?xml version="1.0" encoding="utf-8"?>
<!-- Generator: Adobe Illustrator 22.0.1, SVG Export Plug-In . SVG Version: 6.00 Build 0)  -->
<svg version="1.1" id="Layer_1" xmlns="http://www.w3.org/2000/svg" xmlns:xlink="http://www.w3.org/1999/xlink" x="0px" y="0px"
	 viewBox="0 0 607 172" style="enable-background:new 0 0 607 172;" xml:space="preserve">
<style type="text/css">
	.st0{fill:none;stroke:url(#Rectangle-7_2_);stroke-width:4.32;}
	.st1{fill:url(#Rectangle-7_3_);}
	.st2{fill:url(#ISsoft_1_);}
	.st3{fill:#FFFFFF;}
</style>
<title>Logo</title>
<desc>Created with Sketch.</desc>
<g id="Page-1">
	<g id="issoft_Insights_landing_page_06" transform="translate(-416.000000, -293.000000)">
		<g id="Main-screen" transform="translate(70.000000, 25.000000)">
			<g id="Logo" transform="translate(346.000000, 268.000000)">
				
					<linearGradient id="Rectangle-7_2_" gradientUnits="userSpaceOnUse" x1="586.9197" y1="-0.1365" x2="586.0003" y2="-1.1287" gradientTransform="matrix(296.7159 0 0 131.04 -173878.8125 154.1597)">
					<stop  offset="0" style="stop-color:#9013F8"/>
					<stop  offset="1" style="stop-color:#021789"/>
				</linearGradient>
				<path id="Rectangle-7" class="st0" d="M2.2,2.2v131h296.7l-16-131C282.9,2.2,2.2,2.2,2.2,2.2z"/>
				
					<linearGradient id="Rectangle-7_3_" gradientUnits="userSpaceOnUse" x1="587.2854" y1="1.269" x2="586.1441" y2="2.457" gradientTransform="matrix(350.9276 0 0 -121.68 -205501.7344 323.3601)">
					<stop  offset="0" style="stop-color:#081C89"/>
					<stop  offset="1" style="stop-color:#9013F8"/>
				</linearGradient>
				<path id="Rectangle-7_1_" class="st1" d="M257.8,171.4h329.3c1.1,0,2-0.8,2.1-1.8l17.3-117.4c0.2-1.2-0.6-2.3-1.8-2.5
					c-0.1,0-0.2,0-0.3,0H257.8c-1.2,0-2.2,1-2.2,2.2v117.4C255.7,170.4,256.6,171.4,257.8,171.4z"/>
				
					<linearGradient id="ISsoft_1_" gradientUnits="userSpaceOnUse" x1="584.8782" y1="-2.9253" x2="586.1656" y2="-1.3323" gradientTransform="matrix(213.0601 0 0 62.3716 -124663.5312 185.8175)">
					<stop  offset="0" style="stop-color:#081C89"/>
					<stop  offset="1" style="stop-color:#9013F8"/>
				</linearGradient>
				<path id="ISsoft" class="st2" d="M41.6,95.4H27.8V37.8h13.8V95.4z M81,80.1c0-2-0.7-3.6-2.2-4.7s-4-2.3-7.6-3.5
					s-6.6-2.4-8.9-3.5c-7.5-3.7-11.2-8.7-11.2-15.1c0-3.2,0.9-6,2.8-8.4c1.9-2.4,4.5-4.3,7.9-5.7s7.2-2,11.5-2
					c4.1,0,7.9,0.7,11.1,2.2s5.8,3.6,7.7,6.3c1.8,2.7,2.7,5.8,2.7,9.4H81c0-2.3-0.7-4.2-2.2-5.5c-1.4-1.3-3.4-1.9-5.8-1.9
					c-2.5,0-4.4,0.5-5.9,1.6c-1.4,1.1-2.2,2.5-2.2,4.2c0,1.5,0.8,2.8,2.4,4s4.4,2.4,8.3,3.7c4,1.3,7.3,2.7,9.8,4.1
					c6.2,3.6,9.3,8.5,9.3,14.8c0,5-1.9,9-5.7,11.9s-9,4.3-15.6,4.3c-4.7,0-8.9-0.8-12.7-2.5s-6.6-4-8.5-6.9s-2.9-6.3-2.9-10.1h13.9
					c0,3.1,0.8,5.4,2.4,6.8s4.2,2.2,7.8,2.2c2.3,0,4.1-0.5,5.4-1.5C80.3,83.3,81,81.9,81,80.1z M123.8,83.4c0-1.1-0.6-2-1.8-2.7
					c-1.2-0.7-3.4-1.4-6.8-2.1c-3.3-0.7-6.1-1.7-8.2-2.9s-3.8-2.7-4.9-4.4s-1.7-3.7-1.7-5.9c0-3.9,1.6-7.2,4.9-9.7
					c3.2-2.5,7.5-3.8,12.7-3.8c5.6,0,10.2,1.3,13.6,3.8c3.4,2.6,5.1,5.9,5.1,10.1h-13.4c0-3.4-1.8-5.1-5.4-5.1
					c-1.4,0-2.6,0.4-3.5,1.2s-1.4,1.7-1.4,2.9s0.6,2.1,1.7,2.9c1.2,0.7,3,1.3,5.6,1.8c2.5,0.5,4.8,1,6.7,1.7
					c6.4,2.2,9.7,6.2,9.7,11.9c0,3.9-1.7,7.1-5.2,9.5c-3.5,2.5-8,3.7-13.5,3.7c-3.7,0-6.9-0.7-9.8-2s-5.1-3.1-6.7-5.4
					s-2.4-4.7-2.4-7.2h12.5c0.1,2,0.7,3.4,2,4.3s2.9,1.4,4.9,1.4c1.8,0,3.2-0.4,4.1-1.1C123.3,85.5,123.8,84.6,123.8,83.4z
					 M141.2,73.6c0-4.3,0.8-8.1,2.5-11.4c1.7-3.3,4-5.9,7.2-7.7c3.1-1.8,6.8-2.7,11-2.7c6.4,0,11.5,2,15.1,6s5.5,9.4,5.5,16.2v0.5
					c0,6.7-1.9,12-5.6,15.9c-3.7,3.9-8.7,5.9-15,5.9c-6.1,0-11-1.8-14.7-5.5s-5.7-8.6-6-14.9V73.6z M154.5,74.4c0,4,0.6,6.9,1.9,8.7
					s3.1,2.8,5.5,2.8c4.7,0,7.2-3.7,7.3-11v-1.3c0-7.7-2.5-11.5-7.4-11.5c-4.5,0-6.9,3.3-7.2,9.9L154.5,74.4z M191.3,95.4V61.9h-6.2
					v-9.3h6.2v-3.4c0-4.9,1.4-8.7,4.3-11.4c2.9-2.7,6.9-4,12.1-4c1.9,0,4,0.3,6.2,0.8v9.8c-0.8-0.2-1.9-0.4-3.3-0.4
					c-4,0-6.1,1.7-6.1,5.2v3.3h8.3v9.3h-8.3v33.5L191.3,95.4L191.3,95.4z M233.2,42v10.6h7v9.3h-7v19.6c0,1.6,0.3,2.7,0.9,3.4
					c0.6,0.6,1.7,0.9,3.4,0.9c1.3,0,2.4-0.1,3.3-0.2V95c-2.4,0.8-4.9,1.1-7.5,1.1c-4.6,0-8-1.1-10.2-3.2c-2.2-2.2-3.3-5.4-3.3-9.8
					V61.9h-5.5v-9.3h5.5V42H233.2z"/>
				<g>
					<path class="st3" d="M555.4,127.9c-1.4,0.9-3.3,1.3-5.7,1.3c-1,0-1.9-0.1-2.9-0.3s-1.9-0.6-2.7-1c-0.8-0.5-1.5-1.1-2-1.9
						s-0.9-1.8-0.9-3h-5.7c0,1.4,0.3,2.8,1,4.1c0.6,1.3,1.6,2.5,2.8,3.5s2.7,1.8,4.5,2.4s3.8,0.9,6,0.9c2,0,3.8-0.2,5.4-0.7
						c1.7-0.5,3.1-1.1,4.3-2s2.1-1.9,2.8-3.1c0.7-1.2,1-2.6,1-4s-0.3-2.6-0.9-3.6c-0.6-1-1.4-2-2.5-2.8s-2.5-1.5-4.1-2
						s-3.5-1.1-5.5-1.5c-1.6-0.3-2.8-0.6-3.9-1c-1-0.3-1.8-0.7-2.4-1.1c-0.6-0.4-1-0.9-1.3-1.4c-0.2-0.5-0.4-1.1-0.4-1.8
						c0-0.6,0.2-1.3,0.5-1.8c0.3-0.6,0.8-1.1,1.4-1.6c0.6-0.5,1.4-0.8,2.3-1.1c0.9-0.3,2-0.4,3.2-0.4s2.2,0.2,3.2,0.5
						c0.9,0.3,1.7,0.8,2.4,1.3s1.2,1.1,1.5,1.8c0.4,0.7,0.6,1.4,0.6,2.1h5.7c0-1.5-0.3-2.8-0.9-4.1c-0.6-1.3-1.5-2.4-2.7-3.3
						c-1.1-0.9-2.5-1.7-4.2-2.2c-1.6-0.5-3.5-0.8-5.5-0.8c-1.9,0-3.7,0.3-5.2,0.8c-1.6,0.5-3,1.2-4.1,2.1s-2,1.9-2.7,3.1
						c-0.6,1.2-1,2.4-1,3.8s0.3,2.6,0.9,3.6s1.5,1.9,2.6,2.7c1.1,0.8,2.5,1.4,4,2c1.6,0.6,3.3,1,5.2,1.4c1.6,0.3,2.9,0.7,3.9,1
						s1.9,0.8,2.5,1.2c0.6,0.5,1.1,0.9,1.4,1.5c0.3,0.5,0.4,1.2,0.4,1.8C557.5,125.8,556.8,127,555.4,127.9z M507.8,91.9v8.1h-8.7
						v4.4h8.7v18.1c0,2.1,0.3,3.8,0.8,5.2s1.3,2.6,2.2,3.5c0.9,0.9,2.1,1.6,3.3,2s2.7,0.6,4.1,0.6c0.9,0,1.8,0,2.7-0.1
						s1.7-0.2,2.5-0.4s1.5-0.3,2.2-0.6c0.7-0.2,1.2-0.5,1.7-0.8l-0.8-4c-0.3,0.1-0.8,0.2-1.3,0.3s-1.1,0.2-1.8,0.3
						c-0.6,0.1-1.3,0.2-1.9,0.3c-0.7,0.1-1.3,0.1-1.9,0.1c-0.8,0-1.6-0.1-2.4-0.3c-0.7-0.2-1.4-0.6-2-1.1s-1-1.2-1.4-2
						s-0.5-1.9-0.5-3.2v-18.1H526v-4.4h-12.7v-8.1h-5.5V91.9z M470.4,86h-5.7v47.2h5.7V109c0.9-1.5,2.1-2.7,3.6-3.6s3.1-1.3,5-1.3
						c2.4,0,4.3,0.6,5.6,2c1.3,1.3,2,3.4,2,6.1v21h5.7v-20.9c0-2.2-0.3-4.2-0.8-5.8c-0.5-1.6-1.3-3-2.3-4c-1-1.1-2.2-1.9-3.6-2.4
						s-3-0.8-4.8-0.8c-2.2,0-4.1,0.5-5.9,1.5s-3.2,2.3-4.4,4.1V86H470.4z M434,116.3c0-1.6,0.2-3.2,0.5-4.6c0.3-1.5,0.9-2.8,1.6-3.9
						s1.7-2,2.8-2.7c1.1-0.7,2.5-1,4.1-1c0.9,0,1.8,0.1,2.6,0.4s1.5,0.6,2.1,1s1.2,0.9,1.7,1.5s0.9,1.2,1.3,1.9v15.3
						c-0.4,0.7-0.8,1.4-1.3,2s-1.1,1.1-1.7,1.5c-0.6,0.4-1.3,0.8-2.1,1c-0.8,0.2-1.7,0.4-2.7,0.4c-1.6,0-2.9-0.3-4.1-1
						c-1.1-0.6-2.1-1.5-2.8-2.6s-1.3-2.4-1.6-3.8c-0.3-1.5-0.5-3-0.5-4.6v-0.8H434z M428.3,116.9c0,2.4,0.3,4.6,0.9,6.7
						s1.5,3.9,2.6,5.4s2.5,2.7,4.2,3.6s3.5,1.3,5.5,1.3s3.7-0.3,5.2-1s2.8-1.6,3.9-2.9v2.9c0,1.4-0.2,2.7-0.6,3.8s-1,2-1.8,2.8
						c-0.8,0.7-1.7,1.3-2.8,1.7s-2.3,0.6-3.7,0.6c-0.8,0-1.5-0.1-2.3-0.2c-0.8-0.2-1.5-0.4-2.3-0.8c-0.8-0.3-1.5-0.8-2.2-1.4
						c-0.7-0.6-1.5-1.3-2.2-2.1l-3,3.4c0.8,1.1,1.7,2,2.7,2.7c1.1,0.7,2.2,1.3,3.3,1.8c1.1,0.4,2.3,0.8,3.4,1s2.1,0.3,3,0.3
						c2.1,0,4-0.3,5.7-0.9s3.2-1.5,4.4-2.7s2.2-2.6,2.9-4.3s1-3.7,1-5.8V99.9h-5.2l-0.3,3.6c-1.1-1.4-2.4-2.4-4-3.2
						c-1.5-0.7-3.3-1.1-5.4-1.1s-3.9,0.4-5.6,1.3c-1.6,0.8-3,2-4.2,3.5c-1.1,1.5-2,3.3-2.6,5.4s-0.9,4.4-0.9,6.8v0.7H428.3z
						 M406.3,93.5c0.6,0.6,1.4,0.9,2.6,0.9c1.1,0,2-0.3,2.6-0.9s0.9-1.4,0.9-2.3s-0.3-1.7-0.9-2.4c-0.6-0.6-1.4-1-2.6-1
						c-1.1,0-2,0.3-2.6,1c-0.6,0.6-0.8,1.4-0.8,2.4C405.5,92.1,405.8,92.9,406.3,93.5z M394.9,104.9h11.3v23.4h-11.3v4.9h27.9v-4.9
						h-10.9V99.9h-17V104.9z M378.6,127.9c-1.4,0.9-3.3,1.3-5.7,1.3c-1,0-1.9-0.1-2.9-0.3s-1.9-0.6-2.7-1c-0.8-0.5-1.5-1.1-2-1.9
						s-0.9-1.8-0.9-3h-5.7c0,1.4,0.3,2.8,1,4.1c0.6,1.3,1.6,2.5,2.8,3.5s2.7,1.8,4.5,2.4s3.8,0.9,6,0.9c2,0,3.8-0.2,5.4-0.7
						c1.7-0.5,3.1-1.1,4.3-2s2.1-1.9,2.8-3.1c0.7-1.2,1-2.6,1-4s-0.3-2.6-0.9-3.6s-1.4-2-2.5-2.8s-2.5-1.5-4.1-2s-3.5-1.1-5.5-1.5
						c-1.6-0.3-2.8-0.6-3.9-1c-1-0.3-1.8-0.7-2.4-1.1s-1-0.9-1.3-1.4c-0.2-0.5-0.4-1.1-0.4-1.8c0-0.6,0.2-1.3,0.5-1.8
						c0.3-0.6,0.8-1.1,1.4-1.6s1.4-0.8,2.3-1.1c0.9-0.3,2-0.4,3.2-0.4s2.2,0.2,3.2,0.5c0.9,0.3,1.7,0.8,2.4,1.3
						c0.7,0.5,1.2,1.1,1.5,1.8c0.4,0.7,0.6,1.4,0.6,2.1h5.7c0-1.5-0.3-2.8-0.9-4.1c-0.6-1.3-1.5-2.4-2.7-3.3
						c-1.1-0.9-2.5-1.7-4.2-2.2c-1.6-0.5-3.5-0.8-5.5-0.8c-1.9,0-3.7,0.3-5.2,0.8c-1.6,0.5-3,1.2-4.1,2.1s-2,1.9-2.7,3.1
						c-0.6,1.2-1,2.4-1,3.8s0.3,2.6,0.9,3.6s1.5,1.9,2.6,2.7c1.1,0.8,2.5,1.4,4,2c1.6,0.6,3.3,1,5.2,1.4c1.6,0.3,2.9,0.7,3.9,1
						s1.9,0.8,2.5,1.2c0.6,0.5,1.1,0.9,1.4,1.5c0.3,0.5,0.4,1.2,0.4,1.8C380.7,125.8,380,127,378.6,127.9z M323.3,99.9v33.3h5.7
						v-23.9c0.9-1.6,2-2.8,3.5-3.8c1.4-1,3.1-1.4,5-1.4c1.2,0,2.3,0.1,3.2,0.4c0.9,0.3,1.7,0.7,2.4,1.4c0.6,0.6,1.1,1.5,1.5,2.5
						c0.3,1,0.5,2.3,0.5,3.8v21h5.7v-21.1c0-2.2-0.3-4.1-0.8-5.7s-1.3-2.9-2.3-4s-2.2-1.8-3.6-2.3s-3-0.7-4.8-0.7
						c-2.2,0-4.1,0.5-5.9,1.5s-3.3,2.3-4.5,4l-0.4-4.9L323.3,99.9L323.3,99.9z M288,93.4h10.5v34.9H288v4.9h27v-4.9h-10.7V93.4H315
						v-5h-27V93.4z"/>
				</g>
			</g>
		</g>
	</g>
</g>
</svg>
